<svg xmlns="http://www.w3.org/2000/svg" viewBox="0 0 32 32" width="32" height="32">
  <!-- Space invader / alien shape in red -->
  <rect x="4" y="0" width="4" height="4" fill="#e63946"/>
  <rect x="24" y="0" width="4" height="4" fill="#e63946"/>
  <rect x="8" y="4" width="4" height="4" fill="#e63946"/>
  <rect x="20" y="4" width="4" height="4" fill="#e63946"/>
  <rect x="4" y="8" width="24" height="4" fill="#e63946"/>
  <rect x="0" y="12" width="4" height="4" fill="#e63946"/>
  <rect x="4" y="12" width="4" height="4" fill="#e63946"/>
  <rect x="12" y="12" width="8" height="4" fill="#e63946"/>
  <rect x="24" y="12" width="4" height="4" fill="#e63946"/>
  <rect x="28" y="12" width="4" height="4" fill="#e63946"/>
  <!-- Eyes (dark cutouts) -->
  <rect x="8" y="12" width="4" height="4" fill="#0e0e0e"/>
  <rect x="20" y="12" width="4" height="4" fill="#0e0e0e"/>
  <rect x="0" y="16" width="32" height="4" fill="#e63946"/>
  <rect x="0" y="20" width="4" height="4" fill="#e63946"/>
  <rect x="8" y="20" width="4" height="4" fill="#e63946"/>
  <rect x="20" y="20" width="4" height="4" fill="#e63946"/>
  <rect x="28" y="20" width="4" height="4" fill="#e63946"/>
  <!-- Legs -->
  <rect x="4" y="24" width="4" height="4" fill="#e63946"/>
  <rect x="10" y="24" width="4" height="4" fill="#e63946"/>
  <rect x="18" y="24" width="4" height="4" fill="#e63946"/>
  <rect x="24" y="24" width="4" height="4" fill="#e63946"/>
  <rect x="2" y="28" width="4" height="4" fill="#e63946"/>
  <rect x="26" y="28" width="4" height="4" fill="#e63946"/>
</svg>
